#!OML:ASF F:\VICON\USERDATA\INSTALL\rory3\rory3.ASF
:FULLY-SPECIFIED
:DEGREES
511
root -4.38808 17.6702 -0.177512 22.0497 48.6683 12.0129
lowerback 11.7575 0.841249 0.748021
upperback 7.60945 1.49632 7.58612
thorax 1.22397 0.727362 7.42848
lowerneck -9.72482 -10.5516 -10.1544
upperneck 32.1486 -13.088 2.80148
head 13.3354 -6.32846 0.9442
rclavicle -3.33958e-014 3.81667e-014
rhumerus 17.4596 -8.45046 -85.6786
rradius 32.6772
rwrist -0.801302
rhand -22.4872 -21.089
rfingers 7.12502
rthumb 3.93827 -51.0324
lclavicle -3.33958e-014 3.81667e-014
lhumerus -9.15117 -54.3991 91.3067
lradius 67.5572
lwrist 56.6158
lhand -26.6828 56.807
lfingers 7.12502
lthumb -0.113764 86.7867
rfemur -38.1375 -4.9779 13.2927
rtibia 40.7565
rfoot -12.1649 -0.0335697
rtoes 13.8861
lfemur -21.3827 -6.2934 -25.4156
ltibia 29.5291
lfoot -16.2679 -13.1516
ltoes -15.649
512
root -4.39062 17.6506 -0.199228 21.84 48.4769 12.0067
lowerback 11.7688 1.12108 0.790511
upperback 7.59957 1.87003 7.63934
thorax 1.16023 0.916478 7.41799
lowerneck -9.71159 -10.7035 -10.0876
upperneck 32.2531 -13.3068 2.76201
head 13.386 -6.41386 0.882145
rclavicle -5.08889e-014 -4.45278e-014
rhumerus 17.0917 -6.76173 -85.7853
rradius 32.213
rwrist -0.117805
rhand -20.8429 -20.863
rfingers 7.12502
rthumb 5.52605 -50.7709
lclavicle -5.08889e-014 -4.45278e-014
lhumerus -10.8719 -53.7426 92.3363
lradius 67.5681
lwrist 57.3248
lhand -27.7534 57.5044
lfingers 7.12502
lthumb -1.14769 87.481
rfemur -38.1781 -4.81669 13.1593
rtibia 41.0399
rfoot -12.0614 -0.0158361
rtoes 13.585
lfemur -21.1278 -6.34018 -25.5536
ltibia 29.4271
lfoot -15.7725 -12.406
ltoes -14.3395
513
root -4.39292 17.6278 -0.222983 21.5094 48.1971 11.7748
lowerback 11.6698 1.51923 0.906771
upperback 7.6175 2.39928 7.72058
thorax 1.16803 1.18417 7.3797
lowerneck -9.68972 -10.8631 -9.84997
upperneck 32.4409 -13.5551 2.66517
head 13.451 -6.49556 0.767211
rclavicle 8.26944e-014 1.59028e-014
rhumerus 16.7811 -5.24965 -85.7806
rradius 31.8873
rwrist 0.417304
rhand -18.5832 -20.7889
rfingers 7.12502
rthumb 7.70742 -50.6285
lclavicle 8.26944e-014 1.59028e-014
lhumerus -12.5481 -53.2516 93.3673
lradius 67.6142
lwrist 58.3848
lhand -30.4879 57.7228
lfingers 7.12502
lthumb -3.78859 87.6689
rfemur -38.3088 -4.63723 13.2115
rtibia 41.3241
rfoot -11.9689 0.121998
rtoes 13.2137
lfemur -20.8802 -6.34725 -25.5294
ltibia 29.3272
lfoot -15.4752 -11.315
ltoes -13.0227
514
root -4.396 17.6118 -0.250176 21.131 47.9506 11.5367
lowerback 11.6052 1.94019 1.01953
upperback 7.6147 2.9611 7.80224
thorax 1.13227 1.46891 7.33873
lowerneck -9.34845 -11.0732 -9.52687
upperneck 32.4266 -13.9322 2.63212
head 13.3664 -6.62489 0.665835
rclavicle -5.56597e-014 1.59028e-014
rhumerus 16.3806 -3.73497 -85.7201
rradius 31.6253
rwrist 0.28293
rhand -17.9412 -20.4687
rfingers 7.12502
rthumb 8.3271 -50.2845
lclavicle -5.56597e-014 1.59028e-014
lhumerus -14.2125 -52.9052 94.3001
lradius 67.6247
lwrist 59.6671
lhand -30.4358 58.4592
lfingers 7.12502
lthumb -3.73835 88.4062
rfemur -38.3591 -4.32083 13.205
rtibia 41.6056
rfoot -12.0231 0.170564
rtoes 12.9571
lfemur -20.5842 -6.24958 -25.5324
ltibia 29.2004
lfoot -15.4385 -10.9732
ltoes -11.5405
515
root -4.39748 17.5977 -0.278389 20.8536 47.6996 11.4537
lowerback 11.5801 2.27084 1.05262
upperback 7.57273 3.39832 7.81956
thorax 1.04874 1.6898 7.28514
lowerneck -8.85837 -11.2434 -9.21282
upperneck 32.1308 -14.2882 2.70218
head 13.1372 -6.74748 0.624309
rclavicle 4.77083e-015 -2.8625e-014
rhumerus 15.8753 -2.12182 -85.853
rradius 31.5328
rwrist 0.0646769
rhand -15.2384 -20.4251
rfingers 7.12502
rthumb 10.9349 -50.1204
lclavicle 4.77083e-015 -2.8625e-014
lhumerus -15.9288 -52.4135 95.066
lradius 67.6902
lwrist 61.2567
lhand -30.724 58.1701
lfingers 7.12502
lthumb -4.01666 88.112
rfemur -38.3988 -3.89678 13.019
rtibia 41.8832
rfoot -12.0886 0.165003
rtoes 13.1653
lfemur -20.2282 -6.2092 -25.6812
ltibia 29.0863
lfoot -15.7521 -11.5727
ltoes -10.792
516
root -4.39938 17.5802 -0.309215 20.691 47.4386 11.4482
lowerback 11.6377 2.50238 1.10889
upperback 7.52764 3.71084 7.80169
thorax 0.936164 1.84952 7.19068
lowerneck -8.76087 -11.3715 -9.11929
upperneck 32.0427 -14.5242 2.79217
head 13.0955 -6.83051 0.614016
rclavicle -1.06549e-013 8.26944e-014
rhumerus 15.437 -0.189498 -86.053
rradius 31.5763
rwrist -0.19953
rhand -12.4146 -20.5373
rfingers 7.12502
rthumb 13.6574 -50.0693
lclavicle -1.06549e-013 8.26944e-014
lhumerus -17.5056 -51.5765 95.6448
lradius 67.8841
lwrist 62.7978
lhand -31.3686 58.9745
lfingers 7.12502
lthumb -4.63905 88.9037
rfemur -38.5426 -3.72673 12.8499
rtibia 42.1584
rfoot -11.9976 0.383304
rtoes 13.5005
lfemur -19.9497 -6.25556 -25.9024
ltibia 28.9508
lfoot -16.1735 -11.9762
ltoes -10.4178
517
root -4.40491 17.5603 -0.343009 20.6155 47.2874 11.3324
lowerback 11.6206 2.7094 1.29676
upperback 7.45045 4.00163 7.80711
thorax 0.840609 2.00192 7.04992
lowerneck -8.80758 -11.481 -9.1075
upperneck 32.0067 -14.767 3.06169
head 13.1324 -6.89975 0.671504
rclavicle -2.8625e-014 -3.49861e-014
rhumerus 15.0358 1.60303 -86.3253
rradius 31.7063
rwrist -0.706051
rhand -10.6017 -20.1956
rfingers 7.12502
rthumb 15.4041 -49.6017
lclavicle -2.8625e-014 -3.49861e-014
lhumerus -18.9856 -50.5195 96.1207
lradius 68.2183
lwrist 63.995
lhand -31.7469 59.8539
lfingers 7.12502
lthumb -5.00439 89.7748
rfemur -38.8707 -3.7163 12.8572
rtibia 42.4436
rfoot -11.8271 0.57131
rtoes 13.3254
lfemur -19.8976 -6.33584 -26.0017
ltibia 28.7604
lfoot -16.4783 -11.1986
ltoes -9.8911
518
root -4.41094 17.5416 -0.37782 20.5665 47.1173 11.2413
lowerback 11.608 2.88409 1.45531
upperback 7.41813 4.245 7.79883
thorax 0.796588 2.12873 6.91897
lowerneck -8.98873 -11.5669 -9.13097
upperneck 32.0537 -14.9629 3.32793
head 13.2337 -6.94799 0.730049
rclavicle -4.77083e-015 -6.67916e-014
rhumerus 14.8566 4.17595 -86.2317
rradius 31.6006
rwrist -2.30553
rhand -9.39153 -20.2136
rfingers 7.12502
rthumb 16.5695 -49.5262
lclavicle -4.77083e-015 -6.67916e-014
lhumerus -20.305 -49.4419 96.382
lradius 68.5516
lwrist 65.342
lhand -32.101 59.3005
lfingers 7.12502
lthumb -5.3463 89.2131
rfemur -39.1992 -3.64373 12.808
rtibia 42.7143
rfoot -11.6533 0.778877
rtoes 13.0382
lfemur -19.9243 -6.26396 -26.1776
ltibia 28.6252
lfoot -16.6384 -9.80571
ltoes -9.42873
519
root -4.41807 17.5261 -0.403901 20.5674 46.9191 11.3724
lowerback 11.641 3.07827 1.36655
upperback 7.43409 4.49148 7.7769
thorax 0.763194 2.24957 6.91422
lowerneck -9.20104 -11.6489 -8.96658
upperneck 32.1735 -15.1015 3.30942
head 13.3215 -6.98113 0.660213
rclavicle 2.70347e-014 -1.24042e-013
rhumerus 14.6607 6.10787 -86.403
rradius 31.6717
rwrist -2.99458
rhand -8.05046 -20.1337
rfingers 7.12502
rthumb 17.8603 -49.3335
lclavicle 2.70347e-014 -1.24042e-013
lhumerus -21.5889 -48.2842 96.6785
lradius 68.9693
lwrist 66.7535
lhand -32.541 58.7607
lfingers 7.12502
lthumb -5.77107 88.6621
rfemur -39.3438 -3.43284 12.5465
rtibia 42.9509
rfoot -11.617 0.912007
rtoes 13.0643
lfemur -19.8284 -6.17625 -26.5501
ltibia 28.5575
lfoot -16.8115 -8.99962
ltoes -9.16713
520
root -4.42559 17.5139 -0.440055 20.5689 46.7528 11.2123
lowerback 11.5051 3.30607 1.54918
upperback 7.38388 4.79961 7.75686
thorax 0.764807 2.40863 6.75509
lowerneck -9.19238 -11.762 -8.5839
upperneck 32.0825 -15.3015 3.18363
head 13.2423 -7.04086 0.526704
rclavicle -1.38354e-013 -1.59028e-014
rhumerus 14.4936 7.52352 -86.7056
rradius 31.8259
rwrist -3.01615
rhand -6.15737 -19.8906
rfingers 7.12502
rthumb 19.6811 -48.9143
lclavicle -1.38354e-013 -1.59028e-014
lhumerus -22.7715 -47.2269 96.9076
lradius 69.579
lwrist 68.2871
lhand -33.5065 59.8912
lfingers 7.12502
lthumb -6.7032 89.7651
rfemur -39.739 -3.29132 12.535
rtibia 43.1374
rfoot -11.5127 0.94688
rtoes 12.7145
lfemur -20.0348 -6.12535 -26.7141
ltibia 28.5769
lfoot -16.9328 -8.72906
ltoes -8.75682
521
root -4.43284 17.5097 -0.475082 20.564 46.5745 11.1311
lowerback 11.4001 3.47495 1.68942
upperback 7.38329 5.02338 7.6747
thorax 0.815131 2.52405 6.56565
lowerneck -9.0486 -11.8541 -8.36073
upperneck 31.6599 -15.5564 3.43469
head 13.052 -7.11406 0.563656
rclavicle 2.8625e-014 -6.36111e-015
rhumerus 14.379 8.96026 -87.0589
rradius 32.0742
rwrist -2.91859
rhand -4.00321 -19.465
rfingers 7.12502
rthumb 21.7509 -48.263
lclavicle 2.8625e-014 -6.36111e-015
lhumerus -23.7269 -46.1049 96.8095
lradius 69.8794
lwrist 69.647
lhand -34.424 60.9102
lfingers 7.12502
lthumb -7.58887 269.246
rfemur -40.0182 -3.22041 12.479
rtibia 43.2981
rfoot -11.4171 1.08456
rtoes 12.3033
lfemur -20.1718 -6.12857 -26.9229
ltibia 28.6836
lfoot -17.1626 -7.89613
ltoes -9.19691
522
root -4.44192 17.5078 -0.507583 20.6029 46.3381 11.2543
lowerback 11.4525 3.61969 1.59317
upperback 7.44821 5.20157 7.61111
thorax 0.83417 2.61003 6.53016
lowerneck -9.12394 -11.9595 -8.41785
upperneck 31.3702 -15.8113 3.83114
head 13.0109 -7.19238 0.676697
rclavicle 9.06458e-014 9.54166e-015
rhumerus 14.3294 10.4698 -87.3534
rradius 32.3796
rwrist -2.69884
rhand -1.98639 -19.1632
rfingers 7.12502
rthumb 23.6864 -47.7238
lclavicle 9.06458e-014 9.54166e-015
lhumerus -24.4237 -44.9613 96.6113
lradius 69.6614
lwrist 69.8987
lhand -34.4418 60.5144
lfingers 7.12502
lthumb -7.60605 269.642
rfemur -40.1957 -3.10626 12.2341
rtibia 43.4453
rfoot -11.2551 1.21717
rtoes 12.0719
lfemur -20.2603 -6.25823 -27.2388
ltibia 28.9003
lfoot -17.2148 -6.73564
ltoes -8.85591
523
root -4.45716 17.5007 -0.542017 20.6946 46.1852 11.4272
lowerback 11.6123 3.79973 1.41966
upperback 7.46783 5.43035 7.61324
thorax 0.729138 2.72014 6.59245
lowerneck -9.2334 -12.0445 -8.341
upperneck 31.2662 -15.99 3.98882
head 13.0116 -7.24225 0.688893
rclavicle -1.11319e-013 6.04305e-014
rhumerus 14.2064 11.4955 -87.7466
rradius 32.6591
rwrist -2.27204
rhand -0.319654 -18.9394
rfingers 7.12502
rthumb 25.2842 -47.2838
lclavicle -1.11319e-013 6.04305e-014
lhumerus -25.0876 -43.9301 96.5878
lradius 69.5456
lwrist 69.9052
lhand -34.4928 60.7662
lfingers 7.12502
lthumb -7.65519 269.392
rfemur -40.4516 -3.13956 12.0148
rtibia 43.6405
rfoot -11.0153 1.42471
rtoes 12.1345
lfemur -20.4474 -6.45338 -27.4977
ltibia 29.1211
lfoot -17.1476 -6.1554
ltoes -8.79733
524
root -4.47318 17.4898 -0.58117 20.8387 46.0433 11.6706
lowerback 11.7805 3.96925 1.16774
upperback 7.48443 5.63946 7.64855
thorax 0.6071 2.81837 6.73533
lowerneck -9.27416 -12.1411 -8.20062
upperneck 31.1415 -16.1448 3.97292
head 12.9625 -7.29848 0.636739
rclavicle 3.18055e-014 4.45278e-014
rhumerus 14.0838 12.7183 -87.8897
rradius 32.9437
rwrist -1.84163
rhand 1.20448 -18.5992
rfingers 7.12502
rthumb 26.7435 -46.729
lclavicle 3.18055e-014 4.45278e-014
lhumerus -25.662 -42.8747 96.7119
lradius 69.5773
lwrist 69.9129
lhand -34.4633 61.0096
lfingers 7.12502
lthumb -7.62681 269.148
rfemur -40.7417 -3.23099 11.7495
rtibia 43.9242
rfoot -10.8208 1.64654
rtoes 11.6001
lfemur -20.6731 -6.51463 -27.7955
ltibia 29.3015
lfoot -17.1133 -6.12524
ltoes -8.94652
